<?xml version="1.0" encoding="iso-8859-1"?>
<!-- Generator: Adobe Illustrator 16.0.0, SVG Export Plug-In . SVG Version: 6.00 Build 0)  -->
<!DOCTYPE svg PUBLIC "-//W3C//DTD SVG 1.1//EN" "http://www.w3.org/Graphics/SVG/1.1/DTD/svg11.dtd">
<svg version="1.1" id="Layer_1" xmlns="http://www.w3.org/2000/svg" xmlns:xlink="http://www.w3.org/1999/xlink" x="0px" y="0px"
	 width="132.68px" height="42.108px" viewBox="0 0 132.68 42.108" style="enable-background:new 0 0 132.68 42.108;"
	 xml:space="preserve">
<g>
	<path style="fill:#0096FF;" d="M23.994,9.589c-0.141,0.053-0.281,0.088-0.404,0.141c-0.914,0.387-1.969,0.58-2.883,0.58
		c-0.598,0-1.283-0.193-1.389-0.457c0.018-0.281,0.176-0.703,0.387-1.055c-4.711,0.176-9.563,3.656-9.563,5.273
		c0,0.984,2.549,1.143,3.99,1.143c0.932,0,1.143-0.07,1.459-0.211c0.879-0.422,2.391-0.598,3.305-0.598
		c1.037,0,1.582,0.352,1.582,0.932c0,0.545-0.598,1.775-0.791,1.986c-0.158,0.141-1.846,0.65-2.654,0.721
		c-0.053,0.018-0.352,0.053-0.563,0.088c-0.404,0.07-0.826,0.141-1.037,0.053c-7.629,3.797-8.982,7.541-8.982,8.947
		c0,1.459,1.23,1.74,2.408,1.74c3.814,0,12.164-5.432,12.164-8.701c0-0.439,0.668-0.492,0.844-0.492c0.65,0,1.6,0.334,1.6,2.021
		c0,3.164-7.559,10.055-14.678,10.055c-2.584,0-5.52-1.441-5.52-4.939c0-3.885,4.57-7.383,7.383-8.982
		c-1.705-0.387-3.621-1.301-3.621-3.727c0-4.676,8.736-8.438,13.922-8.438c1.125,0,2.619,0.229,2.936,0.334
		c0.949,0.475,1.459,1.424,1.459,1.793C25.348,9.167,24.627,9.396,23.994,9.589z"/>
	<path style="fill:#0096FF;" d="M46.266,6.091c-2.408,3.902-4.869,7.787-7.154,11.742c-0.984,1.688-5.045,9.141-5.045,10.582v0.141
		c0,0.369,0.123,0.721,0.527,0.721c1.512,0,3.938-3.023,4.342-3.375c0.123-0.105,0.264-0.158,0.387-0.158
		c0.422,0,0.475,0.615,0.475,1.564c0,0.299-0.018,0.58-0.105,0.756c-0.475,0.932-3.182,3.814-5.52,3.814
		c-2.004,0-2.637-0.967-2.637-2.232c0-1.143,0.545-2.549,1.055-3.639c-1.617,2.092-4.816,5.537-7.664,5.537
		c-1.617,0-2.197-1.354-2.197-2.76c0-4.939,6.908-11.496,11.777-11.496c0.492,0,0.967,0.369,1.318,0.686
		c0.686-1.072,1.248-2.162,1.881-3.234c1.283-2.162,2.584-4.289,3.955-6.381c0.545-0.826,1.09-1.723,1.74-2.479
		c0.492-0.65,1.459-0.967,2.303-0.967c0.457,0,0.721,0.316,0.721,0.756C46.424,5.845,46.336,5.95,46.266,6.091z M26.508,26.183
		c-0.316,0.58-0.826,1.617-0.826,2.268c0,0.176,0.035,0.404,0.246,0.404c1.16,0,5.643-5.15,6.416-6.082
		c0.844-1.02,1.652-2.057,2.408-3.146C31.254,20.399,28.23,23.089,26.508,26.183z"/>
	<path style="fill:#0096FF;" d="M62.244,29.171c-0.896,1.652-1.652,3.023-3.234,3.023c-0.791,0-0.967,0.229-1.23,0.229
		c-0.439,0-0.563-0.105-0.563-0.264s0.105-0.352,0.176-0.545c0.07-0.141,1.828-3.85,3.99-8.42c-1.793-0.07-4.641-0.176-7.26-0.246
		c-2.426,3.059-4.219,5.836-5.449,7.91c-0.387,0.738-0.668,1.055-1.23,1.055c-0.615,0-1.564-0.668-1.564-1.547
		c0-1.195,1.828-4.078,4.535-7.523c-0.984,0-1.74,0-2.127,0.035c-0.58,0.053-1.002,0.176-1.301,0.176
		c-0.316,0-0.475-0.158-0.475-0.756c0-1.072,1.266-2.057,3.463-2.057c0.316,0,1.072-0.07,2.672-0.105
		C57.357,14.599,63.58,8.569,67.904,6.39c0.316-0.158,0.527-0.246,0.721-0.229c0.316,0,0.51,0.176,0.756,0.439
		c0.598-1.16,0.545-1.213,0.861-1.213c0.193,0,1.881,0.861,1.881,1.617c0,0.088,0,0.158-0.035,0.246
		C71.139,10.134,63.193,27.413,62.244,29.171z M56.426,20.136c1.652,0.035,3.744,0.105,6.293,0.264
		c1.951-4.113,4.025-8.438,5.432-11.32C63.404,12.683,59.52,16.532,56.426,20.136z"/>
	<path style="fill:#0096FF;" d="M89.701,6.091c-2.408,3.902-4.869,7.787-7.154,11.742c-0.984,1.688-5.045,9.141-5.045,10.582v0.141
		c0,0.369,0.123,0.721,0.527,0.721c1.512,0,3.938-3.023,4.342-3.375c0.123-0.105,0.264-0.158,0.387-0.158
		c0.422,0,0.475,0.615,0.475,1.564c0,0.299-0.018,0.58-0.105,0.756c-0.475,0.932-3.182,3.814-5.52,3.814
		c-2.004,0-2.637-0.967-2.637-2.232c0-1.143,0.545-2.549,1.055-3.639c-1.617,2.092-4.816,5.537-7.664,5.537
		c-1.617,0-2.197-1.354-2.197-2.76c0-4.939,6.908-11.496,11.777-11.496c0.492,0,0.967,0.369,1.318,0.686
		c0.686-1.072,1.248-2.162,1.881-3.234c1.283-2.162,2.584-4.289,3.955-6.381c0.545-0.826,1.09-1.723,1.74-2.479
		c0.492-0.65,1.459-0.967,2.303-0.967c0.457,0,0.721,0.316,0.721,0.756C89.859,5.845,89.771,5.95,89.701,6.091z M69.943,26.183
		c-0.316,0.58-0.826,1.617-0.826,2.268c0,0.176,0.035,0.404,0.246,0.404c1.16,0,5.643-5.15,6.416-6.082
		c0.844-1.02,1.652-2.057,2.408-3.146C74.689,20.399,71.666,23.089,69.943,26.183z"/>
	<path style="fill:#0096FF;" d="M98.139,27.308c0,0.299-0.018,0.58-0.105,0.756c-0.475,0.932-3.164,3.814-5.52,3.814
		c-1.828,0-2.619-1.459-2.619-2.936c0-0.58,0.123-1.16,0.352-1.67c-1.934,2.514-4.781,4.535-6.539,4.535
		c-1.512,0-2.566-1.16-2.742-2.408c-0.053-0.299-0.07-0.58-0.07-0.879c0-5.221,6.609-10.758,10.512-10.758
		c1.354,0,2.109,0.527,2.303,1.107c0.58-0.896,0.861-0.967,1.582-0.967c0.738,0,1.336,0.281,1.336,0.914
		c0,0.264-0.088,0.58-0.246,0.738c-0.264,0.281-3.199,5.08-3.779,8.244c-0.035,0.123-0.053,0.299-0.053,0.492
		c0,0.439,0.123,0.967,0.563,0.967c1.406,0,3.885-3.111,4.166-3.357c0.123-0.105,0.264-0.158,0.387-0.158
		c0.193,0,0.352,0.141,0.369,0.334C98.068,26.306,98.139,26.833,98.139,27.308z M86.73,23.194c-1.547,1.6-3.059,4.271-3.059,5.326
		c0,0.281,0.105,0.439,0.352,0.439c0.668,0,4.676-3.498,6.012-5.15c0.791-1.002,1.986-2.707,2.918-3.955
		C91.758,19.854,89.455,20.347,86.73,23.194z"/>
	<path style="fill:#0096FF;" d="M119.689,27.308c0,0.299-0.018,0.58-0.105,0.756c-0.457,0.896-3.146,3.832-5.59,3.832
		c-0.088,0-0.193,0-0.281-0.018c-2.654-0.264-3.199-1.652-3.199-3.023c0-3.023,4.887-8.719,4.887-9c0-0.07-0.035-0.105-0.141-0.105
		c-1.23,0-7.102,6.521-7.98,7.559c-1.037,1.23-1.951,2.479-2.918,3.744c-0.211,0.281-0.633,0.352-0.949,0.352
		c-0.422,0-1.688-0.246-1.688-0.791c0-0.422,5.59-9.387,5.59-10.037c0-0.264-0.158-0.51-0.439-0.51c-1.318,0-6.17,5.766-6.979,6.838
		c-0.773,1.02-1.477,2.039-2.127,3.164c-0.141,0.229-1.002,1.301-1.23,1.301c-0.281,0-0.58-0.035-0.861-0.035h-0.316
		c-0.264-0.07-0.439-0.281-0.65-0.422c-0.141-0.088-0.141-0.123-0.141-0.299s0.07-0.387,0.141-0.615
		c1.828-4.025,4.061-8.438,6.627-12.059c0.51-0.721,1.811-1.002,2.654-1.002c0.369,0,0.439,0.352,0.439,0.686
		c0,0.176-0.07,0.387-0.141,0.58c-0.299,0.598-2.355,3.059-2.918,3.779c1.441-1.512,5.186-4.939,7.225-4.939
		c1.09,0,1.74,0.756,1.74,1.793c0,1.74-1.705,3.604-2.707,4.834c2.707-2.742,5.695-7.066,9.932-7.066
		c0.861,0,1.582,0.615,1.582,1.512c0,1.23-5.678,8.648-5.678,10.02c0,0.387-0.035,1.107,0.932,1.107
		c1.477-0.211,4.096-3.059,4.43-3.34c0.123-0.105,0.264-0.158,0.387-0.158c0.193,0,0.352,0.141,0.369,0.334
		C119.619,26.306,119.689,26.833,119.689,27.308z"/>
	<path style="fill:#0096FF;" d="M132.68,17.886c0,0.563-0.211,1.213-0.422,1.494c-0.457,0.615-1.775,1.336-2.813,1.336
		c-0.58,0-0.545-0.281-0.791-0.404c-0.123-0.053-0.176-0.193-0.176-0.334c0-0.299,0.264-0.352,0.422-0.844
		c-3.305,0.176-6.697,2.953-6.697,3.533c0,0.668,2.953,0.457,5.977,1.863c1.09,0.51,1.635,1.582,1.635,2.232
		c0,3.164-5.484,5.15-8.402,5.15c-2.549,0-3.34-1.195-3.34-2.092c0-1.266,0.721-2.443,1.441-2.443c0.439,0,0.861,0.035,0.861,0.369
		c0,0.088-0.018,0.193-0.018,0.281c0,0.65,0.633,1.072,0.949,1.072c2.953,0,5.361-1.107,5.361-1.898c0-0.65-2.408-0.914-4.711-1.6
		c-1.178-0.352-2.479-0.879-2.479-2.443c0-4.236,7.98-6.908,10.652-6.908c2.584,0,2.549,1.195,2.549,1.512V17.886z"/>
</g>
</svg>
